<?xml version="1.0" encoding="UTF-8"?>
<svg width="88px" height="88px" viewBox="0 0 88 88" version="1.1" xmlns="http://www.w3.org/2000/svg" xmlns:xlink="http://www.w3.org/1999/xlink">
    <title>btn_voice</title>
    <defs>
        <filter x="-18.8%" y="-18.8%" width="137.5%" height="137.5%" filterUnits="objectBoundingBox" id="filter-1">
            <feGaussianBlur stdDeviation="4" in="SourceGraphic"></feGaussianBlur>
        </filter>
        <linearGradient x1="0%" y1="50%" x2="100%" y2="50%" id="linearGradient-2">
            <stop stop-color="#07AAFF" offset="0%"></stop>
            <stop stop-color="#0371FD" offset="100%"></stop>
        </linearGradient>
    </defs>
    <g id="浅色模式" stroke="none" stroke-width="1" fill="none" fill-rule="evenodd">
        <g id="画板" transform="translate(-338.000000, -188.000000)">
            <g id="btn_voice" transform="translate(350.000000, 200.000000)">
                <path d="M32,0 C49.672,0 64,14.328 64,32 C64,49.672 49.672,64 32,64 C14.328,64 0,49.672 0,32 C0,14.328 14.328,0 32,0 Z" id="路径" fill="#0371FD" fill-rule="nonzero" opacity="0.296763102" filter="url(#filter-1)"></path>
                <path d="M32,0 C49.672,0 64,14.328 64,32 C64,49.672 49.672,64 32,64 C14.328,64 0,49.672 0,32 C0,14.328 14.328,0 32,0 Z" id="路径" fill="url(#linearGradient-2)"></path>
                <path d="M32,14.6666875 C28.3181146,14.6666875 25.3333125,17.6514271 25.3333125,21.3333125 L25.3333125,32 C25.3333125,34.3817781 26.6039759,36.5826318 28.6666562,37.7735209 C30.7293365,38.9644099 33.2706635,38.9644099 35.3333438,37.7735209 C37.3960241,36.5826318 38.6666875,34.3817781 38.6666875,32 L38.6666875,21.3333125 C38.6666875,17.6514271 35.6818854,14.6666875 32,14.6666875 Z" id="路径" fill="#FFFFFF" fill-rule="nonzero"></path>
                <path d="M33.3333125,43.928 C39.4078095,43.2488614 44.0011724,38.1123434 43.9999998,32 C43.9999998,31.2636146 43.4030417,30.6666563 42.6666563,30.6666563 C41.9302708,30.6666563 41.3333125,31.2636146 41.3333125,32 C41.3333125,37.1546462 37.1546462,41.3333125 31.9999998,41.3333125 C26.8453538,41.3333125 22.6666875,37.1546462 22.6666875,32 C22.6666875,31.2636146 22.0697292,30.6666563 21.3333438,30.6666563 C20.5969583,30.6666563 19.9999998,31.2636146 19.9999998,32 C19.9988276,38.1123434 24.5921905,43.2488614 30.6666875,43.928 L30.6666875,52 C30.6666875,52.7363682 31.2636318,53.3333125 31.9999998,53.3333125 C32.7363682,53.3333125 33.3333125,52.7363682 33.3333125,52 L33.3333125,43.928 L33.3333125,43.928 Z" id="路径" fill="#FFFFFF" fill-rule="nonzero"></path>
            </g>
        </g>
    </g>
</svg>