<?xml version="1.0" encoding="UTF-8"?>
<svg width="15px" height="15px" viewBox="0 0 15 15" version="1.1" xmlns="http://www.w3.org/2000/svg" xmlns:xlink="http://www.w3.org/1999/xlink">
    <title>icon_right</title>
    <g id="浅色模式" stroke="none" stroke-width="1" fill="none" fill-rule="evenodd" opacity="0.300000012">
        <g id="画板" transform="translate(-308.000000, -40.000000)" fill="#000000" fill-rule="nonzero">
            <g id="icon_right" transform="translate(308.000000, 40.000000)">
                <rect id="矩形" opacity="0" x="0" y="0" width="15" height="15"></rect>
                <path d="M0.69,6.645 C0.69,6.225 0.7925,5.9425 0.9975,5.7975 C1.2025,5.6525 1.525,5.58 1.965,5.58 C2.165,5.58 2.48,5.5825 2.91,5.5875 C3.34,5.5925 3.7975,5.595 4.2825,5.595 C4.7675,5.595 5.24,5.5975 5.7,5.6025 C6.16,5.6075 6.525,5.61 6.795,5.61 C7.175,5.62 7.475,5.5875 7.695,5.5125 C7.915,5.4375 8.025,5.265 8.025,4.995 C8.025,4.795 8.0325,4.5575 8.0475,4.2825 C8.0625,4.0075 8.07,3.77 8.07,3.57 C8.08,3.22 8.18,2.9975 8.37,2.9025 C8.56,2.8075 8.8,2.88 9.09,3.12 C9.39,3.36 9.74,3.645 10.14,3.975 C10.54,4.305 10.955,4.6425 11.385,4.9875 C11.815,5.3325 12.235,5.6725 12.645,6.0075 C13.055,6.3425 13.42,6.635 13.74,6.885 C14.03,7.125 14.1775,7.3525 14.1826316,7.5675 C14.1875,7.7825 14.05,8.005 13.77,8.235 C13.48,8.475 13.1375,8.75 12.7425,9.06 C12.3475,9.37 11.9375,9.69 11.5125,10.02 C11.0875,10.35 10.67,10.6775 10.26,11.0025 C9.85,11.3275 9.485,11.615 9.165,11.865 C8.815,12.145 8.5275,12.25 8.3025,12.18 C8.0775,12.11 7.97,11.895 7.98,11.535 L7.98,10.74 C7.98,10.59 7.9775,10.4425 7.9725,10.2975 C7.9675,10.1525 7.965,10.02 7.965,9.9 C7.965,9.65 7.89,9.4925 7.74,9.4275 C7.59,9.3625 7.385,9.33 7.125,9.33 C6.835,9.33 6.455,9.3275 5.985,9.3225 C5.515,9.3175 5.025,9.315 4.515,9.315 C4.005,9.315 3.51,9.3125 3.03,9.3075 C2.55,9.3025 2.16,9.3 1.86,9.3 C1.73,9.3 1.595,9.2875 1.455,9.2625 C1.315,9.2375 1.1875,9.19 1.0725,9.12 C0.9575,9.05 0.865,8.9475 0.795,8.8125 C0.725,8.6775 0.69,8.495 0.69,8.265 C0.69,7.995 0.6875,7.735 0.6825,7.485 C0.6775,7.235 0.68,6.955 0.69,6.645 Z" id="路径"></path>
            </g>
        </g>
    </g>
</svg>