<?xml version="1.0" encoding="UTF-8"?>
<svg width="30px" height="30px" viewBox="0 0 30 30" version="1.1" xmlns="http://www.w3.org/2000/svg" xmlns:xlink="http://www.w3.org/1999/xlink">
    <title>icon_shou</title>
    <g id="浅色模式" stroke="none" stroke-width="1" fill="none" fill-rule="evenodd">
        <g id="画板" transform="translate(-185.000000, -138.000000)" fill-rule="nonzero">
            <g id="icon_shou" transform="translate(200.000000, 152.999767) scale(1, -1) translate(-200.000000, -152.999767) translate(185.000000, 138.000000)">
                <rect id="矩形" fill="#000000" opacity="0" x="4.48511668e-06" y="0" width="29.9995334" height="29.9995334"></rect>
                <path d="M3.09212436,20.7863955 C2.43676346,21.1757449 1.61617075,21.1704715 0.965790245,20.7729191 C0.3157027,20.3753667 -0.0548970047,19.652624 0.00662547589,18.899706 C0.0675620281,18.147667 0.549781091,17.4920131 1.25611776,17.2016856 L14.2156818,9.14663508 C14.7931142,8.85953017 15.474256,8.85953017 16.0516884,9.14663508 L29.0115454,17.2016856 C29.9270586,17.7457201 30.2625026,18.8950186 29.7799905,19.8363126 C29.2977715,20.7776065 28.1613634,21.1918579 27.1749529,20.7863955 L15.1335386,13.1942284 L3.09212436,20.7863955 L3.09212436,20.7863955 Z" id="路径" fill-opacity="0.85" fill="#FFFFFF"></path>
            </g>
        </g>
    </g>
</svg>