<?xml version="1.0" encoding="UTF-8"?>
<svg width="41px" height="42px" viewBox="0 0 41 42" version="1.1" xmlns="http://www.w3.org/2000/svg" xmlns:xlink="http://www.w3.org/1999/xlink">
    <title>icon_sound</title>
    <g id="浅色模式" stroke="none" stroke-width="1" fill="none" fill-rule="evenodd" opacity="0.300000012">
        <g id="画板" transform="translate(-238.000000, -27.000000)" fill-rule="nonzero">
            <g id="icon_sound" transform="translate(238.500000, 28.000000)">
                <rect id="矩形" fill="#000000" opacity="0" x="0" y="0" width="40" height="40"></rect>
                <path d="M20,10.8333203 C20.6903559,10.8333203 21.25,11.3929644 21.25,12.0833203 L21.25,27.9166797 C21.25,28.6070356 20.6903559,29.1666797 20,29.1666797 C19.3096441,29.1666797 18.75,28.6070356 18.75,27.9166797 L18.75,12.0833203 C18.75,11.3929644 19.3096441,10.8333203 20,10.8333203 Z M15,14.1666797 C15.6903559,14.1666797 16.25,14.7263238 16.25,15.4166797 L16.25,24.5833203 C16.25,25.2736762 15.6903559,25.8333203 15,25.8333203 C14.3096441,25.8333203 13.75,25.2736762 13.75,24.5833203 L13.75,15.4166797 C13.75,14.7263238 14.3096441,14.1666797 15,14.1666797 Z M25,14.1666797 C25.6903559,14.1666797 26.25,14.7263238 26.25,15.4166797 L26.25,24.5833203 C26.25,25.2736762 25.6903559,25.8333203 25,25.8333203 C24.3096441,25.8333203 23.75,25.2736762 23.75,24.5833203 L23.75,15.4166797 C23.75,14.7263238 24.3096441,14.1666797 25,14.1666797 Z M10,17.5 C10.6903559,17.5 11.25,18.0596441 11.25,18.75 L11.25,21.25 C11.25,21.9403559 10.6903559,22.5 10,22.5 C9.30964406,22.5 8.75,21.9403559 8.75,21.25 L8.75,18.75 C8.75,18.0596441 9.30964406,17.5 10,17.5 Z M30,17.5 C30.6903559,17.5 31.25,18.0596441 31.25,18.75 L31.25,21.25 C31.25,21.9403559 30.6903559,22.5 30,22.5 C29.3096441,22.5 28.75,21.9403559 28.75,21.25 L28.75,18.75 C28.75,18.0596441 29.3096441,17.5 30,17.5 Z" id="形状" fill="#000000"></path>
                <path d="M20,0 C31.0458203,0 40,8.95417969 40,20 C40,31.0458203 31.0458203,40 20,40 C8.95417969,40 0,31.0458203 0,20 C0,8.95417969 8.95417969,0 20,0 Z" id="路径" stroke="#000000"></path>
            </g>
        </g>
    </g>
</svg>