<?xml version="1.0" encoding="UTF-8"?>
<svg width="60px" height="60px" viewBox="0 0 60 60" version="1.1" xmlns="http://www.w3.org/2000/svg" xmlns:xlink="http://www.w3.org/1999/xlink">
    <title>icon_deforuser</title>
    <g id="浅色模式" stroke="none" stroke-width="1" fill="none" fill-rule="evenodd">
        <g id="画板" transform="translate(-345.000000, -40.000000)" fill-rule="nonzero">
            <g id="编组" transform="translate(345.000000, 40.000000)">
                <path d="M30,0 C13.4318167,0 0,13.4318167 0,30 C0,46.5681833 13.4318167,60 30,60 C46.5681833,60 60,46.5688528 60,30 C60,13.4311472 46.5688528,0 30,0 Z M29.622431,11.1797916 C35.1701515,11.1797916 39.683574,15.6262692 39.683574,21.0929864 C39.683574,26.5597037 35.1701515,31.0075201 29.622431,31.0075201 C24.0747105,31.0075201 19.5619574,26.5597037 19.5619574,21.0943253 C19.5619574,15.628947 24.0753799,11.1797916 29.622431,11.1797916 Z M46.4731216,45.2132194 C46.4731216,48.8188695 40.5859907,48.8188695 33.7689956,48.8188695 L26.2303349,48.8188695 C19.1341798,48.8188695 13.5275478,48.8188695 13.5275478,45.2132194 L13.5275478,44.4708009 C13.5275478,37.5754804 19.2252248,31.9621539 26.2303349,31.9621539 L33.7689956,31.9621539 C40.7741057,31.9621539 46.4731216,37.5741415 46.4731216,44.4708009 L46.4731216,45.2132194 Z" id="形状" fill="#E5E5E5"></path>
                <path d="M33.7689956,31.9621539 L26.2303349,31.9621539 C19.2252248,31.9621539 13.5275478,37.5728026 13.5275478,44.4708009 L13.5275478,45.2132194 C13.5275478,48.8188695 19.1341798,48.8188695 26.2303349,48.8188695 L33.7689956,48.8188695 C40.5859907,48.8188695 46.4731216,48.8188695 46.4731216,45.2132194 L46.4731216,44.4708009 C46.4731216,37.5741414 40.7741057,31.9621539 33.7689956,31.9621539 Z M29.622431,31.0075201 C35.1701515,31.0075201 39.683574,26.561712 39.683574,21.0943253 C39.683574,15.6269387 35.1701515,11.1797916 29.622431,11.1797916 C24.0747105,11.1797916 19.5619574,15.628947 19.5619574,21.0943253 C19.5619574,26.5597037 24.0753799,31.0075201 29.622431,31.0075201 Z" id="形状" fill="#FFFFFF"></path>
            </g>
        </g>
    </g>
</svg>