<?xml version="1.0" encoding="UTF-8"?>
<svg width="42px" height="42px" viewBox="0 0 42 42" version="1.1" xmlns="http://www.w3.org/2000/svg" xmlns:xlink="http://www.w3.org/1999/xlink">
    <title>icon_finish</title>
    <g id="浅色模式" stroke="none" stroke-width="1" fill="none" fill-rule="evenodd" opacity="0.85">
        <g id="画板" transform="translate(-174.000000, -73.000000)" fill-rule="nonzero">
            <g id="icon_finish" transform="translate(175.000000, 74.000000)">
                <rect id="矩形" fill="#0371FD" opacity="0" x="0" y="0" width="40" height="40"></rect>
                <path d="M18.6376563,27.1246875 C18.4049927,27.3632029 18.0861283,27.498047 17.7529297,27.4988281 L17.7458984,27.4988281 C17.4144757,27.4984578 17.0965698,27.3674018 16.8611719,27.1341016 L10.3670313,20.64 C10.0513745,20.3243433 9.92809653,19.8642636 10.0436349,19.4330685 C10.1591733,19.0018734 10.495975,18.6650717 10.9271701,18.5495333 C11.3583652,18.433995 11.8184449,18.557273 12.1341016,18.8729297 L17.7364453,24.4729297 L27.8564844,14.1270703 C28.1683521,13.8080573 28.6267212,13.6796565 29.0589285,13.7902354 C29.4911358,13.9008142 29.8315187,14.2335731 29.9518582,14.6631651 C30.0721977,15.092757 29.9542115,15.5539166 29.6423438,15.8729297 L18.6376563,27.1246875 L18.6376563,27.1246875 Z" id="形状" fill="#0371FD"></path>
                <path d="M20,40 C8.97175781,40 0,31.0282422 0,20 C0,8.97175781 8.97175781,0 20,0 C31.0282422,0 40,8.97175781 40,20 C40,31.0282422 31.0282422,40 20,40 Z" id="路径" stroke="#0371FD"></path>
            </g>
        </g>
    </g>
</svg>