<?xml version="1.0" encoding="UTF-8"?>
<svg width="41px" height="42px" viewBox="0 0 41 42" version="1.1" xmlns="http://www.w3.org/2000/svg" xmlns:xlink="http://www.w3.org/1999/xlink">
    <title>icon_phone</title>
    <g id="浅色模式" stroke="none" stroke-width="1" fill="none" fill-rule="evenodd" opacity="0.85">
        <g id="画板" transform="translate(-175.000000, -27.000000)" fill-rule="nonzero">
            <g id="icon_phone" transform="translate(175.500000, 28.000000)">
                <rect id="矩形" fill="#0371FD" opacity="0" x="0" y="0" width="40" height="40"></rect>
                <path d="M26.1029297,31.1108984 L13.9328125,31.1108984 C12.6096094,31.1108984 11.5328125,30.0341016 11.5328125,28.7108984 L11.5328125,10.3759766 C11.5328125,9.05277344 12.6096094,7.97597656 13.9328125,7.97597656 L26.1023828,7.97597656 C27.4255859,7.97597656 28.502383,9.05277344 28.502383,10.3759766 L28.502383,28.7108984 C28.5029297,30.0346484 27.4261328,31.1108984 26.1029297,31.1108984 L26.1029297,31.1108984 Z M13.9327734,9.57601563 C13.4916797,9.57601563 13.1327734,9.93492188 13.1327734,10.3760156 L13.1327734,28.7109375 C13.1327734,29.1520313 13.4916797,29.5109375 13.9327734,29.5109375 L26.1023438,29.5109375 C26.5434375,29.5109375 26.9023438,29.1520313 26.9023438,28.7109375 L26.9023438,10.3760156 C26.9023438,9.93492188 26.5434375,9.57601563 26.1023438,9.57601563 L13.9327734,9.57601563 Z M12.2650781,23.7108984 L27.6346484,23.7108984 L27.6346484,25.3108984 L12.2650781,25.3108984 L12.2650781,23.7108984 Z M19.2,27.4224219 C19.2,27.8642578 19.5581641,28.2224219 20,28.2224219 C20.4418359,28.2224219 20.8,27.8642578 20.8,27.4224219 C20.8,26.9805859 20.4418359,26.6224219 20,26.6224219 C19.5581641,26.6224219 19.2,26.9805859 19.2,27.4224219 Z" id="形状" fill="#0371FD"></path>
                <path d="M20,40 C8.97182365,40 0,31.0276044 0,20 C0,8.97239555 8.97182365,0 20,0 C31.0281763,0 40,8.97182365 40,20 C40,31.0281763 31.0276044,40 20,40 Z" id="路径" stroke="#0371FD"></path>
            </g>
        </g>
    </g>
</svg>