<?xml version="1.0" encoding="UTF-8"?>
<svg width="40px" height="40px" viewBox="0 0 40 40" version="1.1" xmlns="http://www.w3.org/2000/svg" xmlns:xlink="http://www.w3.org/1999/xlink">
    <title>img_robot</title>
    <defs>
        <polygon id="path-1" points="0 0 5.52208835 0 5.52208835 5.83333333 0 5.83333333"></polygon>
        <polygon id="path-3" points="0 0 5.52208835 0 5.52208835 5.83333333 0 5.83333333"></polygon>
        <polygon id="path-5" points="0 0 33.3333333 0 33.3333333 33.0695266 0 33.0695266"></polygon>
        <radialGradient cx="50%" cy="43.573319%" fx="50%" fy="43.573319%" r="62.0986607%" gradientTransform="translate(0.500000,0.435733),scale(0.992080,1.000000),rotate(-135.438143),translate(-0.500000,-0.435733)" id="radialGradient-7">
            <stop stop-color="#F5F5F6" offset="0%"></stop>
            <stop stop-color="#E4E4E4" offset="100%"></stop>
        </radialGradient>
        <filter x="-32.7%" y="-107.8%" width="165.5%" height="315.6%" filterUnits="objectBoundingBox" id="filter-8">
            <feGaussianBlur stdDeviation="1" in="SourceGraphic"></feGaussianBlur>
        </filter>
        <filter x="-32.7%" y="-107.8%" width="165.5%" height="315.6%" filterUnits="objectBoundingBox" id="filter-9">
            <feGaussianBlur stdDeviation="1" in="SourceGraphic"></feGaussianBlur>
        </filter>
    </defs>
    <g id="浅色模式" stroke="none" stroke-width="1" fill="none" fill-rule="evenodd">
        <g id="画板" transform="translate(-51.000000, -28.000000)">
            <g id="img_robot" transform="translate(51.000000, 28.000000)">
                <rect id="矩形" x="0" y="0" width="40" height="40"></rect>
                <g id="编组-5" transform="translate(3.333333, 1.666667)">
                    <g id="编组" transform="translate(6.666667, 0.000000)">
                        <g>
                            <mask id="mask-2" fill="white">
                                <use xlink:href="#path-1"></use>
                            </mask>
                            <g id="Clip-2"></g>
                            <path d="M0.121626727,4.76725266 C0.121626727,4.76725266 -0.511808159,2.78856178 1.11153817,0.162283768 C1.27825534,-0.107187753 1.71921999,-0.0237799014 1.76801526,0.285043017 C1.94783487,1.41810661 2.06846762,3.40749081 5.52208835,5.33442606 L3.7961816,5.69029956 C2.66123978,6.1359969 1.1079237,5.4610349 0.121626727,4.76725266 Z" id="Fill-1" fill="#E5E5E6" mask="url(#mask-2)"></path>
                        </g>
                        <g transform="translate(15.311245, 0.000000)">
                            <mask id="mask-4" fill="white">
                                <use xlink:href="#path-3"></use>
                            </mask>
                            <g id="Clip-4"></g>
                            <path d="M5.40063837,4.76725266 C5.40063837,4.76725266 6.03409399,2.78856178 4.41069454,0.162283768 C4.24397191,-0.107187753 3.80299282,-0.0237799014 3.75419596,0.285043017 C3.57437047,1.41810661 3.45373377,3.40749081 0,5.33442606 L1.72596324,5.69029956 C2.86094221,6.1359969 4.41430912,5.4610349 5.40063837,4.76725266 Z" id="Fill-3" fill="#E5E5E6" mask="url(#mask-4)"></path>
                        </g>
                    </g>
                    <g id="编组" transform="translate(0.000000, 4.166667)">
                        <g>
                            <mask id="mask-6" fill="white">
                                <use xlink:href="#path-5"></use>
                            </mask>
                            <g id="Clip-10"></g>
                            <path d="M33.3335133,3.84010467 C33.3335133,1.72704301 31.5918075,0 29.4641556,0 C20.9297074,0.950989315 12.4038058,0.950989315 3.86935767,0 C1.74170576,0 0,1.72704301 0,3.84010467 C0.920782976,12.4534528 0.762446089,20.8918652 0,29.229422 C0,31.3411448 1.74170576,33.0695266 3.86935767,33.0695266 C12.3111428,32.0935465 21.0228203,32.0935465 29.4641556,33.0695266 C31.5918075,33.0695266 33.3335133,31.3411448 33.3335133,29.229422 C32.5710672,20.8918652 32.4127303,12.4534528 33.3335133,3.84010467" id="Fill-9" fill="url(#radialGradient-7)" mask="url(#mask-6)"></path>
                        </g>
                        <path d="M30.2501178,27.8851344 C29.724673,26.3503311 29.2840354,24.3816043 28.9681403,22.2160049 C28.9681403,22.2160049 28.8582052,21.5486021 28.7370523,20.4392402 L28.7415395,20.4392402 C28.627566,19.4030917 28.5418615,18.3397114 28.4880157,17.2705276 L28.4835286,17.2705276 C28.4548109,16.706695 28.4337213,16.109827 28.4234008,15.4906379 L28.4274393,15.4906379 C28.4103881,14.419222 28.4269906,13.3545024 28.4799389,12.323711 L28.4772466,12.323711 C28.5898739,9.90900738 29.0309603,6.8974358 29.8305697,5.03852918 C29.9535175,4.73317565 29.8031981,4.5081783 29.465316,4.52782093 L27.2903966,4.52782093 C27.1212312,4.52692808 26.9372583,4.62781975 26.8425795,4.85147782 C26.6716192,5.63048648 26.5208512,6.40994156 26.3898265,7.19296803 L6.81734659,7.19296803 C6.68542451,6.40994156 6.53600257,5.63048648 6.36235004,4.85147782 C6.27036355,4.62781975 6.08504444,4.52692808 5.9172252,4.52782093 L3.74140835,4.52782093 C3.40307758,4.5081783 3.25230949,4.73317565 3.37794957,5.03852918 C3.98730393,6.51127965 4.38082659,8.42464991 4.59217114,10.5438213 C4.59217114,10.5438213 4.67024747,11.1902423 4.72633679,12.323711 L4.72543936,12.323711 C4.95159149,17.282581 4.46024906,23.312867 2.95750404,27.8851344 C2.78878737,28.356111 3.16525887,28.5556622 3.35282155,28.5422695 L5.32581943,28.5422695 C5.55511256,28.5485194 5.80549528,28.4516456 5.87549475,28.1534348 C6.07562144,27.322641 6.25690212,26.490508 6.42158036,25.6574821 L26.7864902,25.6574821 C26.9507197,26.490508 27.1311029,27.322641 27.3321271,28.1534348 C27.4007804,28.4516456 27.6520605,28.5485194 27.8818024,28.5422695 L29.8543515,28.5422695 C30.0414655,28.5556622 30.4161422,28.356111 30.2501178,27.8851344" id="Fill-11" fill="#3D3E3E"></path>
                    </g>
                    <g id="编组-2" transform="translate(10.000000, 15.833333)" fill="#01FFFE">
                        <path d="M4.58333333,5.97470238 L-1.75545474,5.97470238 C-2.52759662,5.97470238 -3.15701145,5.35537446 -3.16948483,4.58333333 C-3.18170093,3.82721621 -2.57864999,3.20435906 -1.82253286,3.19214296 C-1.8151604,3.19202384 -1.80778709,3.19196429 -1.80041366,3.19196429 L4.58333333,3.19196429 C5.35176524,3.19196429 5.97470238,3.81490143 5.97470238,4.58333333 C5.97470238,5.35176524 5.35176524,5.97470238 4.58333333,5.97470238 Z" id="路径" opacity="0.400000006" filter="url(#filter-8)" transform="translate(1.391369, 4.583333) rotate(-270.000000) translate(-1.391369, -4.583333) "></path>
                        <path d="M15.9672619,5.97470238 L9.62847384,5.97470238 C8.85633195,5.97470238 8.22691712,5.35537446 8.21444375,4.58333333 C8.20222764,3.82721621 8.80527858,3.20435906 9.56139571,3.19214296 C9.56876817,3.19202384 9.57614148,3.19196429 9.58351491,3.19196429 L15.9672619,3.19196429 C16.7356938,3.19196429 17.358631,3.81490143 17.358631,4.58333333 C17.358631,5.35176524 16.7356938,5.97470238 15.9672619,5.97470238 Z" id="路径备份" opacity="0.400000006" filter="url(#filter-9)" transform="translate(12.775298, 4.583333) rotate(-270.000000) translate(-12.775298, -4.583333) "></path>
                        <path d="M4.58333333,5.97470238 L-1.75545474,5.97470238 C-2.52759662,5.97470238 -3.15701145,5.35537446 -3.16948483,4.58333333 C-3.18170093,3.82721621 -2.57864999,3.20435906 -1.82253286,3.19214296 C-1.8151604,3.19202384 -1.80778709,3.19196429 -1.80041366,3.19196429 L4.58333333,3.19196429 C5.35176524,3.19196429 5.97470238,3.81490143 5.97470238,4.58333333 C5.97470238,5.35176524 5.35176524,5.97470238 4.58333333,5.97470238 Z" id="路径" transform="translate(1.391369, 4.583333) rotate(-270.000000) translate(-1.391369, -4.583333) "></path>
                        <path d="M15.9672619,5.97470238 L9.62847384,5.97470238 C8.85633195,5.97470238 8.22691712,5.35537446 8.21444375,4.58333333 C8.20222764,3.82721621 8.80527858,3.20435906 9.56139571,3.19214296 C9.56876817,3.19202384 9.57614148,3.19196429 9.58351491,3.19196429 L15.9672619,3.19196429 C16.7356938,3.19196429 17.358631,3.81490143 17.358631,4.58333333 C17.358631,5.35176524 16.7356938,5.97470238 15.9672619,5.97470238 Z" id="路径备份" transform="translate(12.775298, 4.583333) rotate(-270.000000) translate(-12.775298, -4.583333) "></path>
                    </g>
                </g>
            </g>
        </g>
    </g>
</svg>